# xmcd
#
# Track frame offsets: 
#        183
#        12933
#        25048
#        35073
#        46493
#        58200
#        69805
#        80988
#        90610
#        101210
#        111455
#        122638
#        135365
#        145948
#        156488
#        167533
#        178745
#        189618
#        201733
#        212168
#        222710
#
# Disc length: 3176 seconds
#
# Revision: 3
# Processed by: cddbd v1.5.2PL0 Copyright (c) Steve Scherf et al.
# Submitted via: ExactAudioCopyFreeDBPlugin 1.0
#
DISCID=480c6615
DTITLE=Various Artist - Harlem Shuffle:  Sixties Soul Classics [Charl
DTITLE=y]
DYEAR=1987
DGENRE=Soul
TTITLE0=Bob and Earl - Harlem Shuffle
TTITLE1=Barbara Lewis - Hello Stranger
TTITLE2=Shades of Blue - Oh How Happy
TTITLE3=Brenton Wood - Oogum Boogum Song
TTITLE4=The Olympics - The Bounce
TTITLE5=Mel and Tim - Backfield in Motion
TTITLE6=Barbara Lewis - Make Me Your Baby
TTITLE7=Gene Allison - You Can Make it if You Try
TTITLE8=Brenton Wood - Gimme Little Sign
TTITLE9=The Olympics - Dancin' Holiday
TTITLE10=Deon Jackson - Love Makes the World Go Round
TTITLE11=Bird Legs and Pauline - Spring
TTITLE12=The Soul Survivors - Expressway To Your Heart
TTITLE13=Fred Hughes - Oo Wee Baby I Love You
TTITLE14=Barbara Lewis - Baby I'm Yours
TTITLE15=The Capitols - Cool Jerk
TTITLE16=The Esquires - Get On Up
TTITLE17=The Esquires - And Get Away
TTITLE18=Jackie Lee - The Duck
TTITLE19=Barbara George - I Know
TTITLE20=Al Wilson - The Snake
EXTD=Input by Bill (whall@netcomuk.co.uk)
EXTT0=
EXTT1=
EXTT2=
EXTT3=
EXTT4=
EXTT5=
EXTT6=
EXTT7=
EXTT8=
EXTT9=
EXTT10=
EXTT11=
EXTT12=
EXTT13=
EXTT14=
EXTT15=
EXTT16=
EXTT17=
EXTT18=
EXTT19=
EXTT20=
PLAYORDER=
